HIERARCHY
ROOT SpineBase
{
  OFFSET 0.000000 0.000000 0.000000
  CHANNELS 6 Xposition Yposition Zposition Zrotation Xrotation Yrotation
  JOINT SpineMid
  {
    OFFSET -0.000000 35.573722 0.000000
    CHANNELS 3 Zrotation Xrotation Yrotation
    JOINT SpineShoulder
    {
      OFFSET -0.043359 26.337733 -0.823505
      CHANNELS 3 Zrotation Xrotation Yrotation
      JOINT Neck
      {
        OFFSET -0.002256 8.627882 -0.598784
        CHANNELS 3 Zrotation Xrotation Yrotation
        JOINT Head
        {
          OFFSET -11.587123 6.361085 3.953352
          CHANNELS 3 Zrotation Xrotation Yrotation
          End Site
          {
            OFFSET 0 0 0
          }
        }
      }
      JOINT ShoulderLeft
      {
        OFFSET -7.665333 -9.719105 -18.732426
        CHANNELS 3 Zrotation Xrotation Yrotation
        JOINT ElbowLeft
        {
          OFFSET -5.143382 -13.904320 25.137138
          CHANNELS 3 Zrotation Xrotation Yrotation
          JOINT WristLeft
          {
            OFFSET -4.191890 -17.664386 23.490971
            CHANNELS 3 Zrotation Xrotation Yrotation
            JOINT HandLeft
            {
              OFFSET -0.623025 -3.778687 10.751625
              CHANNELS 3 Zrotation Xrotation Yrotation
              JOINT HandTipLeft
              {
                OFFSET -0.650828 2.750936 1.382932
                CHANNELS 3 Zrotation Xrotation Yrotation
                End Site
                {
                  OFFSET 0 0 0
                }
              }
              JOINT ThumbLeft
              {
                OFFSET 0.726606 -2.379114 -3.115592
                CHANNELS 3 Zrotation Xrotation Yrotation
                End Site
                {
                  OFFSET 0 0 0
                }
              }
            }
          }
        }
      }
      JOINT ShoulderRight
      {
        OFFSET 5.510742 -6.488460 -14.007483
        CHANNELS 3 Zrotation Xrotation Yrotation
        JOINT ElbowRight
        {
          OFFSET -3.158073 -23.738703 -4.732949
          CHANNELS 3 Zrotation Xrotation Yrotation
          JOINT WristRight
          {
            OFFSET -9.097904 -18.670208 8.016053
            CHANNELS 3 Zrotation Xrotation Yrotation
            JOINT HandRight
            {
              OFFSET -1.738451 -2.478535 4.924968
              CHANNELS 3 Zrotation Xrotation Yrotation
              JOINT HandTipRight
              {
                OFFSET -4.485491 -3.703044 2.622575
                CHANNELS 3 Zrotation Xrotation Yrotation
                End Site
                {
                  OFFSET 0 0 0
                }
              }
              JOINT ThumbRight
              {
                OFFSET 3.748541 -6.042612 -7.236532
                CHANNELS 3 Zrotation Xrotation Yrotation
                End Site
                {
                  OFFSET 0 0 0
                }
              }
            }
          }
        }
      }
    }
  }
  JOINT HipLeft
  {
    OFFSET -6.806715 1.373707 0.594243
    CHANNELS 3 Zrotation Xrotation Yrotation
    JOINT KneeLeft
    {
      OFFSET 18.095381 -31.400960 17.128856
      CHANNELS 3 Zrotation Xrotation Yrotation
      JOINT AnkleLeft
      {
        OFFSET -6.035874 -29.061018 -1.511227
        CHANNELS 3 Zrotation Xrotation Yrotation
        JOINT FootLeft
        {
          OFFSET 3.085525 -3.744337 -13.004455
          CHANNELS 3 Zrotation Xrotation Yrotation
          End Site
          {
            OFFSET 0 0 0
          }
        }
      }
    }
  }
  JOINT HipRight
  {
    OFFSET 6.351043 -1.102264 -8.356987
    CHANNELS 3 Zrotation Xrotation Yrotation
    JOINT KneeRight
    {
      OFFSET -2.042433 -30.682189 2.539551
      CHANNELS 3 Zrotation Xrotation Yrotation
      JOINT AnkleRight
      {
        OFFSET 5.126864 -38.701427 8.293634
        CHANNELS 3 Zrotation Xrotation Yrotation
        JOINT FootRight
        {
          OFFSET 3.056174 -4.023706 -12.129276
          CHANNELS 3 Zrotation Xrotation Yrotation
          End Site
          {
            OFFSET 0 0 0
          }
        }
      }
    }
  }
}
MOTION
Frames: 14
Frame Time: 0.033333
-6.643240 78.274375 350.627841 0.000000 0.000000 34.227473 -0.000000 0.000000 -34.227473 -0.000000 0.000000 0.000000 -0.000000 0.000000 0.000000 0.000000 0.000000 0.000000 -0.000000 0.000000 0.000000 -0.000000 0.000000 0.000000 -0.000000 0.000000 0.000000 -0.000000 0.000000 0.000000 0.000000 0.000000 0.000000 0.000000 0.000000 0.000000 -0.000000 0.000000 0.000000 -0.000000 0.000000 0.000000 -0.000000 0.000000 0.000000 -0.000000 0.000000 0.000000 0.000000 0.000000 0.000000 0.000000 0.000000 0.000000 -0.000000 0.000000 -34.227473 -0.000000 0.000000 0.000000 -0.000000 0.000000 0.000000 0.000000 0.000000 0.000000 -0.000000 0.000000 -34.227473 -0.000000 0.000000 0.000000 -0.000000 0.000000 0.000000 0.000000 0.000000 0.000000
-6.672359 78.210624 350.211974 -0.095386 0.124558 30.359218 0.019353 -0.155688 -30.359088 -0.000000 0.000000 0.000000 -0.796865 -0.096563 0.322943 0.000000 0.000000 0.000000 -0.000000 0.000000 0.000000 -0.000000 0.000000 0.000000 -0.000000 0.000000 0.000000 -0.000000 0.000000 0.000000 0.000000 0.000000 0.000000 0.000000 0.000000 0.000000 -0.000000 0.000000 0.000000 -0.000000 0.000000 0.000000 -0.601899 0.018476 -1.204779 2.788136 0.982862 1.619414 0.000000 0.000000 0.000000 0.000000 0.000000 0.000000 0.019353 -0.155688 -30.359088 -0.000000 0.000000 0.000000 -0.431548 -1.459115 0.305321 0.000000 0.000000 0.000000 -0.078433 0.802133 -30.457340 0.569846 -0.776065 0.102663 -0.249526 0.090717 0.820673 0.000000 0.000000 0.000000
-6.697678 78.158603 349.824931 -0.194436 0.228991 26.638372 0.071129 -0.291861 -26.637803 -0.000000 0.000000 0.000000 -1.677877 -0.250918 0.598905 0.000000 0.000000 0.000000 -0.000000 0.000000 0.000000 -0.000000 0.000000 0.000000 -0.000000 0.000000 0.000000 -0.000000 0.000000 0.000000 0.000000 0.000000 0.000000 0.000000 0.000000 0.000000 -0.000000 0.000000 0.000000 -0.791213 -0.089604 -0.295574 -0.330634 0.213232 -2.006531 4.825745 1.632215 3.068562 0.000000 0.000000 0.000000 0.000000 0.000000 0.000000 0.071129 -0.291861 -26.637803 -0.000000 0.000000 0.000000 -0.868216 -2.905625 0.660875 0.000000 0.000000 0.000000 -0.181230 1.547791 -26.824015 1.055633 -1.527710 0.203053 -0.505580 0.173584 1.654543 0.000000 0.000000 0.000000
-6.719197 78.118313 349.466712 -0.297168 0.313383 23.078607 0.150546 -0.404788 -23.077263 -0.000000 0.000000 0.000000 -2.644550 -0.462670 0.827231 0.000000 0.000000 0.000000 -0.000000 0.000000 0.000000 -0.000000 0.000000 0.000000 -0.000000 0.000000 0.000000 -0.000000 0.000000 0.000000 0.000000 0.000000 0.000000 0.000000 0.000000 0.000000 -0.000000 0.000000 0.000000 -1.107804 -0.135552 -0.408772 -0.469299 0.445804 -2.918485 6.174217 1.909631 4.411137 0.000000 0.000000 0.000000 0.000000 0.000000 0.000000 0.271688 0.337077 -22.752930 0.175217 -0.730986 -0.323143 -1.306628 -4.329609 1.069813 0.000000 0.000000 0.000000 -0.293674 2.243995 -23.340771 1.458185 -2.255680 0.299348 -0.768099 0.248413 2.501769 0.000000 0.000000 0.000000
-6.736917 78.089753 349.137316 -0.403605 0.377805 19.686594 0.252752 -0.491680 -19.684179 -0.000000 0.000000 0.000000 -3.698786 -0.731448 1.006724 0.000000 0.000000 0.000000 -0.000000 0.000000 0.000000 -0.000000 0.000000 0.000000 -0.000000 0.000000 0.000000 -0.000000 0.000000 0.000000 0.000000 0.000000 0.000000 0.000000 0.000000 0.000000 -0.000000 0.000000 0.000000 -1.371673 -0.182749 -0.498836 -0.609222 0.759000 -3.809737 6.892927 1.788526 5.691155 0.000000 0.000000 0.000000 0.000000 0.000000 0.000000 0.136990 0.519645 -19.401285 0.445172 -0.915433 -0.279309 -1.743177 -5.720574 1.535194 0.000000 0.000000 0.000000 -0.402765 2.898929 -20.014303 1.863456 -3.844550 0.294868 -1.118312 1.197231 3.479159 0.000000 0.000000 0.000000
-6.750838 78.072924 348.836745 -0.513769 0.422316 16.462716 0.373045 -0.550587 -16.459030 -0.000000 0.000000 0.000000 -4.842816 -1.056843 1.135655 0.000000 0.000000 0.000000 -0.000000 0.000000 0.000000 -0.000000 0.000000 0.000000 -0.000000 0.000000 0.000000 -0.000000 0.000000 0.000000 0.000000 0.000000 0.000000 0.000000 0.000000 0.000000 -0.000000 0.000000 0.000000 -1.582803 -0.231480 -0.565714 -0.760011 1.155892 -4.705166 7.038752 1.247412 6.935491 0.000000 0.000000 0.000000 0.000000 0.000000 0.000000 -0.114891 0.706337 -16.291363 0.821048 -1.069528 -0.159340 -2.174109 -7.067604 2.059910 0.000000 0.000000 0.000000 -0.497496 3.521442 -16.845321 2.149743 -4.745641 0.363429 -1.439383 1.472720 4.382609 0.000000 0.000000 0.000000
-6.712211 78.097665 348.516121 -0.605033 0.497027 10.310040 -0.101638 0.132609 -10.329029 0.047563 0.010136 -0.025031 -5.395294 -2.190084 0.921250 0.000000 0.000000 0.000000 0.681710 -0.618864 0.050813 -0.000000 0.000000 0.000000 -0.000000 0.000000 0.000000 -0.000000 0.000000 0.000000 0.000000 0.000000 0.000000 0.000000 0.000000 0.000000 0.681710 -0.618864 0.050813 -1.702775 -0.204211 -0.629616 -1.164606 1.025426 -5.581713 5.953789 0.124549 8.127629 0.000000 0.000000 0.000000 0.000000 0.000000 0.000000 -1.412424 1.404503 -10.584722 2.254618 -1.614373 0.325234 -2.960210 -10.049610 2.554567 0.000000 0.000000 0.000000 -0.787555 4.798860 -10.782051 2.506323 -6.435153 0.508311 -1.911776 1.832766 5.667644 0.000000 0.000000 0.000000
-6.735514 78.054820 348.347971 -0.751327 0.446729 3.404557 -0.070956 0.185021 -3.425671 0.022815 0.012195 -0.030859 -6.072612 -2.416782 1.052339 0.000000 0.000000 0.000000 0.810955 -0.638601 0.060611 -0.000000 0.000000 0.000000 -0.000000 0.000000 0.000000 0.231962 1.072117 0.134177 0.000000 0.000000 0.000000 0.000000 0.000000 0.000000 0.810955 -0.638601 0.060611 -1.804576 -0.290239 -0.632449 -1.480872 1.795581 -6.911563 5.999963 -1.625382 10.564829 0.000000 0.000000 0.000000 0.000000 0.000000 0.000000 -3.036362 2.078632 -4.151414 3.939003 -2.285717 0.883632 -3.491718 -11.987885 3.029822 0.000000 0.000000 0.000000 -1.001058 6.549283 -3.948010 2.516523 -8.558927 0.652885 -2.271593 2.141425 6.606955 0.000000 0.000000 0.000000
-6.354767 78.035031 347.715414 -0.404716 0.933183 3.149222 -0.314601 -0.040287 -3.169751 -0.132614 -0.131175 -0.039790 -7.778324 -3.141174 0.922398 0.000000 0.000000 0.000000 0.850088 -0.743647 0.064291 -0.000000 0.000000 0.000000 -0.000000 0.000000 0.000000 0.283435 1.318288 0.165101 0.000000 0.000000 0.000000 0.000000 0.000000 0.000000 0.203320 -1.296026 0.255265 -1.235988 0.166089 -0.806909 -1.409202 3.000996 -7.819018 4.146654 -3.922758 11.040496 0.000000 0.000000 0.000000 0.000000 0.000000 0.000000 -2.157940 1.529299 -3.225006 2.648424 -2.336572 0.148648 -3.850469 -10.909021 6.227168 0.000000 0.000000 0.000000 -2.273162 5.189560 -3.691498 3.407828 -7.784143 0.680537 -2.601529 2.410624 7.457356 0.000000 0.000000 0.000000
-6.726742 78.242441 347.961745 -1.010502 0.290999 6.886277 0.213124 0.494966 -6.905196 -0.050904 -0.023526 -0.037956 -10.175974 -4.075484 0.646507 0.000000 0.000000 0.000000 0.910032 -0.783440 0.069143 -0.000000 0.000000 0.000000 -0.000000 0.000000 0.000000 0.300004 1.393400 0.174036 0.000000 0.000000 0.000000 0.000000 0.000000 0.000000 0.169293 -1.414427 0.286627 -1.197493 0.158511 -0.817105 -0.849725 5.087191 -8.516064 2.109738 -6.786885 10.876482 0.000000 0.000000 0.000000 0.000000 0.000000 0.000000 -0.688361 1.471723 -6.923692 1.872204 -1.667620 0.086048 -3.388947 -9.311172 5.491973 0.000000 0.000000 0.000000 -0.556174 5.528922 -7.378429 2.746086 -7.622197 0.570624 -2.877581 2.434197 7.996122 0.000000 0.000000 0.000000
-6.861039 78.480761 347.972319 -1.222047 0.074977 8.241231 0.252548 0.543494 -8.267163 0.069077 0.088904 -0.034991 -12.685926 -4.887889 0.504625 0.000000 0.000000 0.000000 0.981762 -0.736767 0.074224 -0.000000 0.000000 0.000000 -0.000000 0.000000 0.000000 0.264391 1.241564 0.157027 0.000000 0.000000 0.000000 0.000000 0.000000 0.000000 0.185047 -1.376966 0.303592 -1.133303 0.237247 -0.858913 -1.318170 5.193687 -9.561191 3.073366 -6.833961 12.341739 0.000000 0.000000 0.000000 0.000000 0.000000 0.000000 1.198689 -0.249343 -8.237823 -0.696980 -1.394210 0.317150 -2.929166 -8.988732 5.136302 0.000000 0.000000 0.000000 -0.084956 5.680713 -8.732687 2.761781 -7.638423 0.588274 -3.144516 2.435658 8.410738 0.000000 0.000000 0.000000
-7.205239 78.769593 348.157385 -1.707964 -0.313654 8.968681 0.461023 0.621175 -9.008207 0.231604 0.243646 -0.032721 -15.278601 -5.645175 0.408004 0.000000 0.000000 0.000000 1.118492 -0.613785 0.083426 -0.000000 0.000000 0.000000 -0.000000 0.000000 0.000000 0.224659 1.008960 0.123190 0.000000 0.000000 0.000000 0.000000 0.000000 0.000000 0.279950 -1.438656 0.345509 -1.182265 0.520524 -0.971242 -1.337885 4.511618 -9.183132 3.115019 -6.094620 11.923798 0.000000 0.000000 0.000000 0.000000 0.000000 0.000000 2.585404 -1.741172 -9.287237 -2.396173 -0.981232 0.954615 -1.768759 -8.436181 0.955404 0.000000 0.000000 0.000000 1.132889 6.202159 -9.470786 2.321434 -7.876838 0.592076 -3.417601 2.295448 8.804460 0.000000 0.000000 0.000000
-7.540065 78.992685 348.304776 -2.154478 -0.592774 9.756051 0.612287 0.612058 -9.811318 0.379872 0.378550 -0.032213 -17.598911 -6.349457 0.206474 0.000000 0.000000 0.000000 1.275348 -0.490459 0.093817 -0.000000 0.000000 0.000000 -0.000000 0.000000 0.000000 -0.000000 0.000000 0.000000 0.000000 0.000000 0.000000 0.000000 0.000000 0.000000 0.417698 -1.433548 0.376164 -1.367768 0.745769 -1.121295 -0.970773 4.377831 -8.686619 1.851534 -6.516801 10.939505 0.000000 0.000000 0.000000 0.000000 0.000000 0.000000 3.175833 -2.250255 -10.313796 -3.171413 -1.485886 1.466341 -1.611469 -11.841056 -4.552968 0.000000 0.000000 0.000000 2.221371 6.519106 -10.275739 2.006664 -8.046106 0.610562 -3.697133 2.188127 9.077752 0.000000 0.000000 0.000000
-7.787843 79.188535 348.407641 -2.509238 -0.767597 9.723084 0.662750 0.544768 -9.793703 0.487013 0.490097 -0.034445 -19.244628 -6.832024 0.074489 0.000000 0.000000 0.000000 1.461153 -0.368292 0.105987 -0.000000 0.000000 0.000000 -0.000000 0.000000 0.000000 -0.000000 0.000000 0.000000 0.000000 0.000000 0.000000 0.000000 0.000000 0.000000 0.538830 -1.386909 0.411614 -1.558464 0.873723 -1.270254 -0.585167 3.419074 -7.523973 1.918173 -5.438270 10.046935 0.000000 0.000000 0.000000 0.000000 0.000000 0.000000 4.220481 -2.701260 -10.120540 -4.375713 -1.991700 1.558683 -0.907142 -11.213037 -7.294965 0.000000 0.000000 0.000000 2.892727 6.852150 -10.267121 1.961178 -8.224545 0.680875 -3.981409 2.063442 9.256542 0.000000 0.000000 0.000000
